<svg width="308" height="54" viewBox="0 0 308 54" fill="none" xmlns="http://www.w3.org/2000/svg">
<path d="M45.3564 32.1535C44.4328 32.7179 43.3554 32.8206 42.5344 32.3588C41.5083 31.7431 40.8926 30.3578 40.8926 28.4594V22.6615C40.8926 19.8909 39.8151 17.8899 37.968 17.3768C34.8382 16.4533 32.478 20.3014 31.6058 21.738L26.0645 30.6143V19.6857C26.0132 17.1716 25.1923 15.6836 23.653 15.2219C22.6269 14.914 21.0876 15.0679 19.5997 17.3255L7.23444 37.1304C5.59258 34.0006 4.72035 30.5117 4.72035 26.9714C4.72035 15.0166 14.315 5.31939 26.0645 5.31939C37.8141 5.31939 47.4087 15.0166 47.4087 26.9714V27.0227V27.074C47.5113 29.3829 46.793 31.23 45.3564 32.1535ZM52.1291 26.9714V26.9201V26.8688C52.0777 12.3486 40.3795 0.496429 26.0645 0.496429C11.6983 0.496429 0 12.3486 0 26.9714C0 41.5429 11.6983 53.4464 26.0645 53.4464C32.6833 53.4464 38.9429 50.9323 43.7658 46.3659C44.7407 45.4423 44.792 43.9544 43.8684 42.9796C42.9962 42.0047 41.5083 41.9534 40.5334 42.8256C40.5334 42.8256 40.5334 42.8256 40.4821 42.8769C36.5827 46.5711 31.3493 48.6748 25.9619 48.6748C19.651 48.6748 14.0071 45.9041 10.1077 41.4916L21.2416 23.6364V31.897C21.2416 35.8477 22.7808 37.1304 24.0635 37.4896C25.3462 37.8487 27.2959 37.5922 29.3996 34.2572L35.5052 24.3547C35.7104 24.0469 35.8644 23.739 36.0696 23.5338V28.562C36.0696 32.2562 37.5575 35.232 40.1229 36.6687C42.4318 38.0027 45.3564 37.8487 47.7679 36.3608C50.7437 34.4111 52.3343 31.0248 52.1291 26.9714ZM88.4552 17.9412C89.0709 18.3003 89.6353 19.1726 89.6353 19.9422C89.6353 21.1736 88.6091 22.1998 87.429 22.1998C87.1212 22.1998 86.8646 22.0972 86.6081 22.0458C85.2228 21.0197 83.4783 20.3527 81.6312 20.3527C77.27 20.3527 74.2942 23.8929 74.2942 28.3054C74.2942 32.7179 77.3213 36.2069 81.6312 36.2069C83.7862 36.2069 85.7359 35.3347 87.1725 33.9493C87.5317 33.6928 87.9934 33.5389 88.4552 33.5389C89.6353 33.5389 90.5588 34.4624 90.5588 35.6425C90.5588 36.4121 90.0971 37.0791 89.5327 37.4383C87.429 39.2341 84.6071 40.4142 81.6825 40.4142C75.0125 40.4142 69.5738 34.9242 69.5738 28.1515C69.5738 21.3788 75.0125 15.8889 81.6825 15.8889C84.1453 15.8376 86.5055 16.6072 88.4552 17.9412ZM100.667 23.072C105.233 23.072 109.03 26.9201 109.03 31.6918C109.03 36.4121 105.182 40.4655 100.667 40.4655C95.8949 40.4655 91.9441 36.4634 91.9441 31.6918C91.9441 26.9201 95.8949 23.072 100.667 23.072ZM100.615 36.2069C102.616 36.2069 104.309 34.3085 104.309 31.7431C104.309 29.1777 102.616 27.5358 100.615 27.5358C98.4603 27.5358 96.6645 29.1264 96.6645 31.7431C96.6645 34.2572 98.4603 36.2069 100.615 36.2069ZM111.903 37.7974V25.6887C111.903 24.3547 112.929 23.2772 114.263 23.2772C115.546 23.2772 116.623 24.3547 116.623 25.6887V37.7974C116.623 39.1315 115.546 40.2089 114.263 40.2089C112.98 40.2089 111.903 39.0801 111.903 37.7974ZM111.544 18.7108C111.544 17.1203 112.775 15.8889 114.263 15.8889C115.802 15.8889 117.034 17.1716 117.034 18.7108C117.034 20.2501 115.802 21.4814 114.263 21.4814C112.724 21.4301 111.544 20.1987 111.544 18.7108ZM125.654 31.23V37.7974C125.654 39.1315 124.576 40.2089 123.293 40.2089C122.011 40.2089 120.933 39.1315 120.933 37.7974V25.1243C120.933 24.0982 121.754 23.2772 122.78 23.2772C123.806 23.2772 124.576 24.1495 124.576 25.1243C126.475 23.3285 128.168 23.072 129.758 23.072C134.479 23.072 136.582 26.6123 136.582 30.6656V37.7974C136.582 39.1315 135.505 40.2089 134.222 40.2089C132.939 40.2089 131.862 39.1315 131.862 37.7974V31.23C131.862 29.1777 131.605 27.4332 128.629 27.4332C126.526 27.4332 125.654 29.1777 125.654 31.23ZM151.872 33.7441C151.308 33.7441 150.948 33.4876 150.641 33.1284L145.151 27.1767V37.7974C145.151 39.1315 144.073 40.2089 142.79 40.2089C141.508 40.2089 140.43 39.1315 140.43 37.7974V16.7611C140.584 16.402 140.943 16.1454 141.303 16.1454C141.713 16.1454 142.072 16.5046 142.329 16.7611L151.102 26.6123C151.359 26.9201 151.667 27.074 151.872 27.074C152.026 27.074 152.385 26.9201 152.642 26.6123L161.415 16.7611C161.672 16.5046 161.98 16.1454 162.441 16.1454C162.852 16.1454 163.211 16.402 163.314 16.7611V37.7974C163.314 39.1315 162.288 40.2089 160.954 40.2089C159.671 40.2089 158.593 39.1315 158.593 37.7974V27.1767L153.103 33.1284C152.693 33.4876 152.334 33.7441 151.872 33.7441ZM174.55 36.2069C176.654 36.2069 178.45 34.3085 178.45 31.7431C178.45 29.1777 176.603 27.4845 174.55 27.4845C172.498 27.4845 170.805 29.229 170.805 31.7431C170.805 34.2059 172.447 36.2069 174.55 36.2069ZM179.578 38.3618L179.476 37.7974C178.552 39.5932 175.628 40.4142 173.781 40.4142C169.368 40.4142 166.084 36.4121 166.084 31.6405C166.084 26.9201 169.419 23.0207 174.037 23.0207C174.807 23.0207 177.475 23.2259 179.527 25.6374L179.63 25.073C179.63 24.0469 180.399 23.2259 181.425 23.2259C182.452 23.2259 183.273 24.0982 183.273 25.073V38.3105C183.273 39.3367 182.452 40.1576 181.425 40.1576C180.348 40.2089 179.578 39.3367 179.578 38.3618ZM196.254 27.4332H195.74C192.765 27.5871 192.2 29.2803 192.2 31.23V37.7974C192.2 39.1315 191.123 40.2089 189.84 40.2089C188.557 40.2089 187.48 39.1315 187.48 37.7974V25.1243C187.48 24.0982 188.301 23.2772 189.327 23.2772C190.353 23.2772 191.123 24.1495 191.123 25.1243C192.867 23.4825 194.304 23.1233 195.74 23.072H196.202C197.331 23.072 198.357 24.0469 198.357 25.2783C198.408 26.407 197.382 27.4332 196.254 27.4332ZM214.468 36.6687C214.673 37.0278 214.827 37.387 214.827 37.7974C214.827 39.0288 213.698 40.1576 212.467 40.1576C211.646 40.1576 210.928 39.5419 210.363 38.8236L204.925 32.5127V37.7461C204.925 39.0801 203.847 40.1576 202.564 40.1576C201.282 40.1576 200.204 39.0801 200.204 37.7461V18.5056C200.204 17.1716 201.23 16.0941 202.564 16.0941C203.898 16.0941 204.925 17.1716 204.925 18.5056V30.5117L210.363 24.5086C210.928 23.8929 211.595 23.2259 212.416 23.2259C213.596 23.2259 214.673 24.3034 214.673 25.5348C214.673 25.894 214.571 26.3044 214.365 26.6123L210.055 31.3326L214.468 36.6687ZM223.703 27.4845C222.421 27.4845 220.317 28.1515 220.317 30.1525H227.141C227.09 28.1515 224.935 27.4845 223.703 27.4845ZM229.86 33.1797H220.317C220.317 36.0017 223.036 36.4634 224.216 36.4634C225.089 36.4634 226.32 36.3095 227.295 35.8477C227.603 35.6425 228.065 35.4886 228.526 35.4886C229.553 35.4886 230.425 36.3608 230.425 37.4383C230.425 38.1566 229.963 38.7723 229.399 39.1315C227.962 40.2089 226.064 40.4655 224.268 40.4655C219.496 40.4655 215.545 37.9001 215.545 31.897C215.545 27.1767 217.957 23.072 223.601 23.072C228.167 23.072 231.605 26.0479 231.707 31.3326C231.707 32.3075 230.887 33.1797 229.86 33.1797ZM242.995 40.4142H241.713C238.121 40.4142 236.017 38.8236 236.017 33.231V27.4332H234.786C233.657 27.4332 232.682 26.407 232.682 25.2783C232.682 24.0469 233.708 23.072 234.786 23.072H236.017V18.6082C236.017 17.2742 237.044 16.1967 238.378 16.1967C239.66 16.1967 240.738 17.2742 240.738 18.6082V23.072H242.687C243.816 23.072 244.791 24.0469 244.791 25.2783C244.791 26.407 243.765 27.4332 242.687 27.4332H240.738V32.3075C240.738 35.5399 240.892 36.2069 242.328 36.2069H242.995C244.124 36.2069 245.099 37.1304 245.099 38.3105C245.099 39.4393 244.124 40.4142 242.995 40.4142ZM265.827 17.9412C266.443 18.3003 267.007 19.1726 267.007 19.9422C267.007 21.1736 265.981 22.1998 264.801 22.1998C264.493 22.1998 264.237 22.0972 263.98 22.0458C262.595 21.0197 260.85 20.3527 259.003 20.3527C254.642 20.3527 251.666 23.8929 251.666 28.3054C251.666 32.7179 254.693 36.2069 259.003 36.2069C261.158 36.2069 263.108 35.3347 264.545 33.9493C264.904 33.6928 265.366 33.5389 265.827 33.5389C267.007 33.5389 267.931 34.4624 267.931 35.6425C267.931 36.4121 267.469 37.0791 266.905 37.4383C264.801 39.2341 261.979 40.4142 259.055 40.4142C252.385 40.4142 246.946 34.9242 246.946 28.1515C246.946 21.3788 252.385 15.8889 259.055 15.8889C261.517 15.8376 263.929 16.6072 265.827 17.9412ZM277.782 36.2069C279.886 36.2069 281.682 34.3085 281.682 31.7431C281.682 29.1777 279.834 27.4845 277.782 27.4845C275.678 27.4845 274.037 29.229 274.037 31.7431C274.037 34.2059 275.73 36.2069 277.782 36.2069ZM282.81 38.3618L282.708 37.7974C281.784 39.5932 278.86 40.4142 277.013 40.4142C272.6 40.4142 269.316 36.4121 269.316 31.6405C269.316 26.9201 272.651 23.0207 277.269 23.0207C278.039 23.0207 280.707 23.2259 282.759 25.6374L282.862 25.073C282.862 24.0469 283.631 23.2259 284.657 23.2259C285.684 23.2259 286.505 24.0982 286.505 25.073V38.3105C286.505 39.3367 285.684 40.1576 284.657 40.1576C283.58 40.2089 282.81 39.3367 282.81 38.3618ZM299.383 36.2069C301.487 36.2069 303.128 34.2059 303.128 31.7431C303.128 29.1777 301.435 27.4845 299.383 27.4845C297.279 27.4845 295.483 29.1777 295.483 31.7431C295.483 34.3085 297.279 36.2069 299.383 36.2069ZM295.483 39.0288V45.0319C295.483 46.3659 294.406 47.4434 293.123 47.4434C291.841 47.4434 290.763 46.3659 290.763 45.0319V25.1243C290.763 24.0982 291.584 23.2772 292.61 23.2772C293.636 23.2772 294.406 24.1495 294.406 25.3296C296.15 23.5338 298.305 23.072 299.947 23.072C304.514 23.072 307.9 26.9201 307.9 31.6918C307.9 36.4121 304.668 40.4655 300.204 40.4655C298.818 40.4141 296.766 40.0037 295.483 39.0288Z" fill="#D1C5F0"/>
</svg>
