<svg width="241" height="54" viewBox="0 0 241 54" fill="none" xmlns="http://www.w3.org/2000/svg">
<path fill-rule="evenodd" clip-rule="evenodd" d="M26.1279 19.4341C27.6924 18.6308 29.6839 17.4484 31.6776 15.8283C32.0978 16.7269 32.1439 17.511 31.9275 18.1442C31.774 18.5904 31.4845 18.9786 31.1045 19.2874C30.6926 19.6211 30.1781 19.864 29.6097 19.9954C28.531 20.2455 27.2716 20.0994 26.1279 19.4341Z" fill="#CEC4E6"/>
<path fill-rule="evenodd" clip-rule="evenodd" d="M26.3989 27.6648L28.4706 28.8965C24.2408 31.3369 23.0909 35.8684 21.7251 40.2823C20.3592 35.8684 19.2092 31.3369 14.9794 28.8965L17.0511 27.6648C17.4513 27.5097 17.7272 27.1019 17.7059 26.6388C17.5161 22.5051 18.6004 20.6772 20.0628 19.5295C20.5874 19.1184 21.1599 18.9119 21.7251 18.9119C22.2901 18.9119 22.8625 19.1184 23.3871 19.5295C24.8498 20.6772 25.9339 22.5051 25.7442 26.6388C25.7227 27.1019 25.9987 27.5097 26.3989 27.6648Z" fill="#CEC4E6"/>
<path fill-rule="evenodd" clip-rule="evenodd" d="M21.725 0.674286C24.1195 0.740547 26.5202 1.21891 28.6035 2.14999C30.0462 2.79544 31.3924 3.64812 32.611 4.6676C33.1617 5.12786 33.6148 5.57258 34.1142 6.08437C35.4611 6.13231 37.429 4.59218 38.3428 3.15117C36.7703 8.45787 29.5949 14.7247 24.6269 17.1227C24.6251 17.1219 24.6235 17.1206 24.622 17.1195C23.7306 16.4188 22.7278 16.0684 21.725 16.0684C20.7222 16.0684 19.7196 16.4188 18.828 17.1195C18.8264 17.1203 18.8251 17.1219 18.8231 17.1227C13.8553 14.7247 6.67981 8.45787 5.10741 3.15117C6.02093 4.59218 7.98905 6.13231 9.33575 6.08437C9.83519 5.57258 10.2885 5.12786 10.8389 4.6676C12.0578 3.64812 13.404 2.79544 14.8466 2.14999C16.93 1.21891 19.3306 0.740547 21.725 0.674286Z" fill="#CEC4E6"/>
<path fill-rule="evenodd" clip-rule="evenodd" d="M17.3223 19.4341C15.7576 18.6308 13.7661 17.4484 11.7726 15.8283C11.3522 16.7269 11.3061 17.511 11.5226 18.1442C11.6763 18.5904 11.9654 18.9786 12.3455 19.2874C12.7575 19.6211 13.2718 19.864 13.8405 19.9954C14.9192 20.2455 16.1786 20.0994 17.3223 19.4341Z" fill="#CEC4E6"/>
<path fill-rule="evenodd" clip-rule="evenodd" d="M33.861 13.8431C34.9586 12.7029 35.9255 11.441 36.7033 10.3149L37.0981 11.0801C38.3698 13.6986 39.0304 16.3067 39.0304 19.242C39.0304 20.7941 39.0236 22.3474 39.0276 23.8994C39.0297 24.8727 39.0365 25.3402 39.0512 26.3139C39.1436 32.2412 40.3895 38.2386 43.2117 43.7268L37.3068 38.8253L33.1286 45.8047L28.7391 41.5513L21.725 53.2686L14.7107 41.5513L10.3214 45.8047L6.14328 38.8253L0.238281 43.7268C3.06062 38.2386 4.30648 32.2412 4.3986 26.3139C4.41354 25.3402 4.42011 24.8727 4.42254 23.8994C4.42644 22.3474 4.41978 20.7941 4.41978 19.242C4.41978 16.3067 5.08025 13.6986 6.35195 11.0801L6.74678 10.3149C7.52439 11.441 8.49135 12.7029 9.58901 13.8431L9.24627 14.576C8.58043 15.9995 8.35982 17.5911 8.8786 19.1048C9.21293 20.0797 9.82331 20.9158 10.6101 21.5542C11.374 22.1741 12.2782 22.5919 13.2249 22.8113C13.8415 22.9542 14.4697 23.013 15.0938 22.9931C14.9481 23.8428 14.8846 24.7242 14.8804 25.6223L9.3103 28.9341L13.6086 31.4143C13.9595 31.6168 14.2844 31.8447 14.5864 32.0937C18.1302 35.3691 20.2607 45.0587 21.725 49.7915C23.1891 45.0587 25.3197 35.3691 28.8635 32.0937C29.1658 31.8447 29.4903 31.6168 29.8414 31.4143L34.1397 28.9341L28.5694 25.6223C28.5654 24.7242 28.5019 23.8428 28.3561 22.9931C28.9804 23.013 29.6084 22.9542 30.2251 22.8113C31.1717 22.5919 32.076 22.1741 32.8397 21.5542C33.6268 20.9158 34.237 20.0797 34.5713 19.1048C35.09 17.5911 34.8696 15.9995 34.2038 14.576L33.861 13.8431Z" fill="#CEC4E6"/>
<path d="M66.5052 35.7581C72.0259 35.7581 75.37 32.369 75.37 26.7501C75.37 21.1487 72.0259 17.7772 66.5583 17.7772H60.082V35.7581H66.5052ZM63.9128 32.5009V21.0345H66.3548C69.7521 21.0345 71.548 22.7553 71.548 26.7501C71.548 30.7624 69.7521 32.5009 66.346 32.5009H63.9128ZM78.2078 35.7581H90.4525V32.6238H82.0386V28.3304H89.7889V25.1961H82.0386V20.9116H90.4172V17.7772H78.2078V35.7581ZM97.0546 17.7772H92.7107L98.2758 26.7676L92.6047 35.7581H96.9927L100.709 29.621H100.85L104.566 35.7581H108.972L103.319 26.7676L108.848 17.7772H104.522L100.85 23.9055H100.709L97.0546 17.7772Z" fill="#CEC4E6"/>
<path d="M123.997 22.2724H126.121C126.023 19.5595 123.502 17.5314 119.998 17.5314C116.53 17.5314 113.805 19.5332 113.805 22.5534C113.805 24.9766 115.575 26.4165 118.406 27.2242L120.635 27.8563C122.546 28.3831 124.245 29.0504 124.245 30.8415C124.245 32.8081 122.334 34.1074 119.821 34.1074C117.663 34.1074 115.752 33.1594 115.575 31.1224H113.31C113.522 34.0724 115.929 36.0743 119.821 36.0743C123.997 36.0743 126.368 33.7915 126.368 30.8766C126.368 27.5051 123.148 26.4165 121.272 25.9248L119.432 25.4331C118.087 25.082 115.929 24.3796 115.929 22.4481C115.929 20.7272 117.521 19.463 119.927 19.463C122.122 19.463 123.785 20.499 123.997 22.2724ZM144.556 23.3963C143.884 19.7088 140.911 17.5314 137.266 17.5314C132.63 17.5314 129.268 21.0784 129.268 26.7676C129.268 32.4568 132.63 36.0038 137.266 36.0038C140.911 36.0038 143.884 33.8266 144.556 30.139H142.362C141.831 32.6325 139.672 33.9669 137.266 33.9669C133.975 33.9669 131.391 31.4383 131.391 26.7676C131.391 22.0969 133.975 19.5683 137.266 19.5683C139.672 19.5683 141.831 20.9028 142.362 23.3963H144.556ZM148.101 35.7581H150.295V28.7343H154.259C154.418 28.7343 154.569 28.7343 154.719 28.7255L158.541 35.7581H161.089L156.993 28.3304C159.302 27.549 160.381 25.679 160.381 23.2909C160.381 20.1127 158.47 17.7772 154.224 17.7772H148.101V35.7581ZM150.295 26.7676V19.7088H154.153C157.09 19.7088 158.223 21.1311 158.223 23.2909C158.223 25.4507 157.09 26.7676 154.188 26.7676H150.295ZM164.037 35.7581H175.114V33.8266H166.232V27.7159H174.406V25.7843H166.232V19.7088H174.973V17.7772H164.037V35.7581ZM178.927 35.7581H190.004V33.8266H181.122V27.7159H189.296V25.7843H181.122V19.7088H189.863V17.7772H178.927V35.7581ZM208.185 17.7772H206.027V31.9302H205.85L195.941 17.7772H193.818V35.7581H196.012V21.6403H196.189L206.062 35.7581H208.185V17.7772ZM212.576 35.7581H223.653V33.8266H214.77V27.7159H222.945V25.7843H214.77V19.7088H223.511V17.7772H212.576V35.7581ZM227.466 35.7581H229.66V28.7343H233.623C233.783 28.7343 233.933 28.7343 234.083 28.7255L237.905 35.7581H240.453L236.357 28.3304C238.666 27.549 239.746 25.679 239.746 23.2909C239.746 20.1127 237.835 17.7772 233.588 17.7772H227.466V35.7581ZM229.66 26.7676V19.7088H233.517C236.454 19.7088 237.587 21.1311 237.587 23.2909C237.587 25.4507 236.454 26.7676 233.553 26.7676H229.66Z" fill="#CEC4E6"/>
</svg>
