<svg width="189" height="54" viewBox="0 0 189 54" fill="none" xmlns="http://www.w3.org/2000/svg">
<path fill-rule="evenodd" clip-rule="evenodd" d="M17.1847 3.78761C14.0609 5.41063 11.4936 6.78096 11.5033 6.83927C11.5033 6.98505 19.0101 10.7656 19.2737 10.7559C19.3908 10.7559 20.2694 10.3477 21.2261 9.86176L22.9636 8.97737L26.7512 10.9211L29.8554 9.53133C34.5216 7.44182 35.0097 7.20857 34.9316 7.14054C34.834 7.03364 33.1549 6.13952 28.6059 3.75846C26.4095 2.61166 24.2815 1.47457 23.8715 1.25105C23.4615 1.0178 23.071 0.842865 23.0027 0.842865C22.9344 0.842865 20.3084 2.1646 17.1847 3.78761ZM3.46941 10.8628L0.208981 12.5344V19.8817C0.208981 23.9246 0.248028 27.229 0.306599 27.229C0.355408 27.229 1.95634 26.539 3.86964 25.6934L7.33507 24.1579V16.4121L9.02385 17.3257C10.3319 18.0351 11.6302 18.7349 12.9383 19.4443L15.164 20.6397L16.1499 20.1927C16.7747 19.9108 17.3897 19.629 18.0047 19.3472C18.483 19.1236 19.6544 18.5988 20.6111 18.1809C21.5677 17.763 22.4463 17.3354 22.5732 17.2382C22.7391 17.1119 20.7087 15.9942 15.0664 13.1078C10.8103 10.9308 7.18864 9.16202 7.02269 9.17174C6.85674 9.18146 5.25581 9.93951 3.46941 10.8628ZM35.5075 11.3293C33.2916 12.3303 31.4759 13.1855 31.4759 13.2341C31.4759 13.2827 32.6864 14.0019 34.1604 14.828C35.6442 15.6541 36.8449 16.3733 36.8449 16.4316C36.8449 16.4899 35.5368 17.1216 33.9359 17.8311C32.3349 18.5502 28.2936 20.3676 24.9453 21.874L13.7485 26.918C10.9274 28.1814 8.38934 29.3282 8.10624 29.4545C2.35657 32.0494 0.765401 32.7686 0.550643 32.8949C0.335884 33.0213 0.287075 33.7405 0.248028 37.3655L0.199219 41.6903L6.01723 44.6448L10.0586 42.8274C12.2745 41.8264 14.1 40.9614 14.1 40.8934C14.1 40.8254 13.69 40.563 13.1921 40.3006C12.6943 40.0382 11.6595 39.455 10.8883 39.008C10.1269 38.5609 9.36551 38.1527 9.19956 38.0944C9.03361 38.0361 8.89695 37.9486 8.89695 37.8806C8.89695 37.8223 10.6736 36.9768 12.8505 36.0146C17.0675 34.1389 20.2889 32.6909 27.21 29.5712C30.3045 28.1814 33.399 26.7819 36.5032 25.3922C39.2267 24.1676 42.3896 22.739 43.5317 22.2142L45.6109 21.2617L45.7085 12.515L42.7605 11.0183C41.14 10.1922 39.7441 9.5119 39.6758 9.5119C39.5977 9.5119 37.7234 10.338 35.5075 11.3293ZM44.83 27.1124C44.3907 27.3262 43.5317 27.7246 42.9167 27.9967C42.3017 28.2689 41.1303 28.7937 40.3201 29.163L38.846 29.8336L38.8167 33.6724C38.7972 35.7814 38.7191 37.5016 38.641 37.4919C38.4653 37.4627 35.7027 36.0535 32.9206 34.5666C30.9097 33.4975 30.7828 33.4489 30.3143 33.6822C30.0409 33.8182 28.4107 34.5471 26.6926 35.2955C24.9746 36.0535 23.5103 36.7144 23.442 36.7824C23.3736 36.8407 26.8293 38.7067 31.1342 40.9323L38.9437 44.9752L42.2822 43.255C44.1174 42.3123 45.6793 41.4474 45.7476 41.3405C45.9135 41.0975 45.894 26.6945 45.7378 26.7139C45.6695 26.7236 45.2595 26.8985 44.83 27.1124ZM26.3412 44.0131C25.7653 44.256 25.1796 44.5087 24.6036 44.7614C22.8563 45.5097 23.1979 45.5389 21.1187 44.5087C19.7325 43.8187 19.137 43.6146 18.8735 43.7118C18.6782 43.7895 17.009 44.5379 15.1542 45.3737C13.3093 46.2095 11.7279 46.8995 11.6498 46.8995C10.8688 46.8995 12.1671 47.6673 17.1456 50.165L22.9832 53.1L25.4431 51.8949C26.7903 51.234 29.5236 49.9026 31.4954 48.9404C33.4771 47.9783 35.0682 47.1716 35.0389 47.1328C35.0097 47.1036 33.3502 46.2581 31.349 45.2473L27.7176 43.4202L26.3412 44.0131Z" fill="#CEC4E6"/>
<path d="M133.879 17.4974C129.704 18.007 126.625 20.335 125.493 23.8096C124.715 26.1724 124.809 28.4193 125.788 30.701C126.944 33.3996 129.432 35.3222 132.735 36.0519C133.69 36.2719 136.155 36.2835 137.146 36.0982C140.979 35.3569 143.656 33.0174 144.765 29.4733C145.025 28.6278 145.06 28.373 145.06 26.8673C145.06 25.3616 145.025 25.1068 144.765 24.2613C143.668 20.7635 141.085 18.4587 137.394 17.6943C136.627 17.5437 134.528 17.4279 133.879 17.4974ZM136.214 22.0955C137.594 22.4545 138.903 23.3348 139.505 24.3656C140.437 25.9176 140.401 27.9676 139.434 29.4501C137.7 32.1255 133.737 32.5657 131.355 30.3419C129.373 28.4888 129.303 25.5469 131.19 23.5432C132.452 22.2229 134.457 21.6554 136.214 22.0955Z" fill="#CEC4E6"/>
<path d="M154.315 17.4974C150.27 18.007 147.288 20.335 146.191 23.8096C145.437 26.1724 145.528 28.4193 146.477 30.701C147.596 33.3996 150.007 35.3222 153.207 36.0519C154.132 36.2719 156.52 36.2835 157.48 36.0982C161.193 35.3569 163.787 33.0174 164.861 29.4733C165.112 28.6278 165.146 28.373 165.146 26.8673C165.146 25.3616 165.112 25.1068 164.861 24.2613C163.798 20.7635 161.296 18.4587 157.72 17.6943C156.977 17.5437 154.943 17.4279 154.315 17.4974ZM156.589 22.0955C157.937 22.4545 159.194 23.3348 159.776 24.3656C160.679 25.9176 160.645 27.9676 159.708 29.4501C158.028 32.1255 154.189 32.5657 151.881 30.3419C149.962 28.4888 149.893 25.5469 151.721 23.5432C152.932 22.2229 154.875 21.6554 156.589 22.0955Z" fill="#CEC4E6"/>
<path d="M181.495 17.5635C179.094 17.9108 177.288 19.4392 176.705 21.6391C176.146 23.7116 176.542 25.8304 177.661 26.8609C178.325 27.4746 179.118 27.8335 181.297 28.5282C183.407 29.1997 183.885 29.4892 184.106 30.1955C184.351 31.006 183.745 31.9785 182.824 32.2333C182.323 32.3722 181.379 32.3722 180.749 32.2217C180.062 32.0596 178.826 31.4575 178.302 31.006C178.069 30.786 177.801 30.6239 177.754 30.6239C177.707 30.6239 177.439 31.0175 177.183 31.5038C176.822 32.187 176.705 32.3375 176.682 32.1522L176.647 31.9207H171.041V17.8877H166.402V35.8805H176.635V35.3826C176.635 35.1163 176.658 34.8963 176.682 34.8963C176.705 34.8963 177.125 35.0931 177.614 35.3131C179.129 36.0194 180.097 36.2278 181.973 36.2278C183.803 36.2278 184.665 36.0657 185.796 35.5215C186.693 35.0931 187.906 33.9006 188.314 33.0669C189.118 31.3996 189.234 29.1534 188.558 27.7293C188.442 27.463 188.045 26.942 187.673 26.583C186.88 25.7957 186.029 25.3673 183.85 24.6726C182.987 24.4063 182.125 24.0821 181.926 23.9663C181.227 23.5379 181.087 22.6001 181.635 22.0096C182.591 20.9907 184.292 21.0833 186.064 22.2527L186.414 22.4727L187.358 20.678C187.859 19.7055 188.279 18.8834 188.255 18.8718C188.15 18.7676 186.833 18.2466 186.087 18.015C184.514 17.5287 182.859 17.355 181.495 17.5635Z" fill="#CEC4E6"/>
<path d="M65.9647 27.1144V36.4568H69.2814C71.1047 36.4568 73.0105 36.4021 73.5053 36.3473C77.6008 35.8455 80.6244 33.3731 81.5956 29.742C81.9163 28.5377 81.9896 26.4211 81.7605 25.162C81.2932 22.717 80.0197 20.7463 78.0589 19.4143C77.1794 18.8121 76.3914 18.4837 75.127 18.137C74.1375 17.8724 73.9817 17.8724 70.0419 17.8177L65.9738 17.7721V27.1144H65.9647ZM73.2029 21.5857C75.7775 22.1331 77.4909 24.2771 77.4909 26.9593C77.4817 28.7384 76.932 30.2711 75.9058 31.2838C74.8888 32.3057 73.377 32.7983 71.2697 32.8074H70.271V21.4397H71.3796C71.9843 21.4397 72.7998 21.5127 73.2029 21.5857Z" fill="#CEC4E6"/>
<path d="M83.3089 27.1238V36.457L91.2068 36.4479H99.0956L101.13 33.6014C102.257 32.0504 103.2 30.7731 103.228 30.7731C103.274 30.7731 104.217 32.0504 105.335 33.6196L107.378 36.4661H109.944C111.346 36.4661 112.5 36.4296 112.5 36.4023C112.5 36.3658 110.988 34.2674 109.165 31.7402L105.83 27.142L109.018 22.7081C110.778 20.2812 112.308 18.192 112.408 18.0734C112.61 17.8727 112.61 17.9 112.61 19.7703V21.668H116.495V36.4661H121.131V21.668L123.394 21.6497L125.648 21.6132L123.229 17.8179L115.313 17.8088H107.387L105.353 20.6553C104.226 22.2063 103.283 23.4835 103.255 23.5018C103.219 23.5018 102.275 22.2245 101.157 20.6553L99.1139 17.8088H83.3272V27.1238H83.3089ZM97.2448 22.4526C99.0589 24.9524 100.543 27.0508 100.543 27.1147C100.543 27.1785 99.0589 29.2951 97.2356 31.8132L93.9188 36.3932L93.8822 34.605L93.8639 32.8168H87.6152V28.6291H92.6728V25.0893H87.6152V21.4399H93.8639V19.67C93.8639 18.6938 93.8822 17.9 93.9097 17.9C93.9372 17.9 95.4306 19.9528 97.2448 22.4526Z" fill="#CEC4E6"/>
</svg>
