<svg width="238" height="54" viewBox="0 0 238 54" fill="none" xmlns="http://www.w3.org/2000/svg">
<g clip-path="url(#clip0_33_607)">
<mask id="mask0_33_607" style="mask-type:luminance" maskUnits="userSpaceOnUse" x="0" y="0" width="238" height="54">
<path d="M237.491 1.52588e-05H0.648438V53.9429H237.491V1.52588e-05Z" fill="white"/>
</mask>
<g mask="url(#mask0_33_607)">
<mask id="mask1_33_607" style="mask-type:luminance" maskUnits="userSpaceOnUse" x="0" y="0" width="238" height="54">
<path d="M237.056 3.05176e-05H0.648438V53.7833H237.056V3.05176e-05Z" fill="white"/>
</mask>
<g mask="url(#mask1_33_607)">
<path d="M70.5741 17.4417V24.8673H79.5882V27.9208H70.5741V35.5201H80.6306V38.7478H66.6211V14.2525H80.6284V17.4448L70.5741 17.4417ZM94.0851 35.3101V38.7452H91.6575C89.6231 38.7452 88.0801 38.2536 87.028 37.2706C85.9759 36.2875 85.4501 34.6514 85.4505 32.3622V22.9934H82.7109V19.6278H85.4505V14.8741H89.4384V19.6278H94.0502V22.9934H89.4384V32.4317C89.4384 33.5187 89.6408 34.2704 90.0451 34.6867C90.4494 35.1029 91.1604 35.3107 92.1776 35.3101H94.0851ZM108.476 19.3156C110.696 19.3156 112.475 20.0328 113.816 21.4671C115.157 22.9015 115.827 24.9486 115.827 27.6086V38.747H111.874V28.0252C111.874 26.3134 111.435 24.989 110.557 24.052C110.09 23.5752 109.526 23.2034 108.905 22.9612C108.283 22.7189 107.617 22.6117 106.95 22.6468C106.249 22.6159 105.55 22.7345 104.898 22.9948C104.246 23.255 103.657 23.651 103.17 24.1563C102.223 25.1626 101.749 26.6374 101.749 28.5805V38.747H97.7955V13.0697H101.749V23.8265C102.205 22.459 103.109 21.2856 104.314 20.4953C105.554 19.6978 107.003 19.2872 108.476 19.3156ZM138.194 28.2679C138.201 28.8377 138.154 29.4068 138.055 29.968H123.352C123.421 31.9344 123.964 33.3917 124.982 34.34C126.006 35.2917 127.364 35.8026 128.761 35.7629C129.957 35.8004 131.131 35.4471 132.108 34.7565C132.998 34.1219 133.602 33.1619 133.789 32.0846H138.02C137.783 33.3869 137.236 34.6129 136.425 35.6585C135.589 36.7203 134.506 37.5604 133.269 38.105C131.905 38.7092 130.426 39.0109 128.935 38.9893C127.226 39.0231 125.537 38.6168 124.03 37.8096C122.609 37.024 121.447 35.8427 120.684 34.409C119.842 32.7935 119.425 30.9906 119.47 29.1695C119.427 27.3595 119.845 25.5685 120.684 23.9644C121.447 22.5307 122.609 21.3493 124.03 20.5638C125.537 19.7565 127.226 19.3503 128.935 19.3841C130.642 19.3447 132.331 19.745 133.839 20.5466C135.197 21.2806 136.317 22.3884 137.065 23.7389C137.826 25.1258 138.214 26.686 138.194 28.2679H138.194ZM134.206 28.164C134.287 27.0783 134.065 25.9915 133.565 25.0247C133.126 24.2144 132.448 23.5598 131.623 23.1508C130.786 22.7424 129.866 22.5346 128.935 22.5438C127.506 22.4996 126.115 23.0094 125.051 23.9666C124.011 24.9152 123.445 26.3153 123.352 28.1671L134.206 28.164ZM145.96 23.3755C146.589 22.146 147.55 21.1181 148.734 20.4086C149.993 19.6647 151.433 19.2862 152.895 19.3156V23.6182H151.716C149.982 23.6182 148.59 24.0403 147.538 24.8845C146.486 25.7287 145.961 27.1226 145.963 29.066V38.7492H142.01V19.6278H145.963L145.96 23.3755ZM162.119 19.385C164.362 19.385 166.158 19.9576 167.51 21.1028C168.878 22.275 169.761 23.9138 169.989 25.7012H166.245C166.12 24.7283 165.646 23.8342 164.91 23.1853C164.097 22.5195 163.065 22.1795 162.015 22.2312C161.185 22.178 160.364 22.4311 159.709 22.9426C159.438 23.1824 159.224 23.4798 159.083 23.813C158.942 24.1462 158.878 24.5067 158.894 24.8682C158.883 25.1393 158.93 25.4097 159.031 25.6614C159.133 25.9129 159.287 26.14 159.483 26.3273C159.908 26.7165 160.41 27.012 160.957 27.1948C161.783 27.4691 162.622 27.7008 163.471 27.889C164.655 28.1399 165.82 28.4762 166.956 28.8953C167.846 29.2423 168.634 29.8094 169.245 30.5437C169.921 31.4193 170.26 32.5094 170.198 33.6144C170.218 34.3593 170.064 35.0985 169.748 35.7731C169.432 36.4478 168.963 37.0393 168.378 37.5005C167.164 38.4954 165.529 38.9928 163.473 38.9928C161.092 38.9928 159.167 38.4376 157.7 37.3272C156.969 36.7697 156.357 36.0708 155.902 35.272C155.446 34.4732 155.156 33.5908 155.048 32.6775H158.897C158.943 33.1721 159.09 33.6521 159.329 34.0878C159.567 34.5235 159.893 34.9056 160.284 35.2106C161.204 35.894 162.331 36.2378 163.475 36.1833C164.288 36.2298 165.089 35.9629 165.712 35.4374C165.977 35.1995 166.187 34.9066 166.327 34.5792C166.468 34.2518 166.535 33.8976 166.525 33.5415C166.539 33.2464 166.491 32.9516 166.384 32.6764C166.276 32.4012 166.111 32.1521 165.9 31.9453C165.451 31.5321 164.919 31.2187 164.34 31.0256C163.499 30.7479 162.642 30.522 161.774 30.3491C160.628 30.095 159.499 29.7701 158.393 29.3764C157.528 29.0537 156.763 28.5093 156.174 27.7974C155.522 26.9505 155.196 25.8978 155.255 24.8306C155.233 24.078 155.387 23.3307 155.702 22.6474C156.018 21.9641 156.488 21.3633 157.075 20.8923C158.289 19.8874 159.971 19.385 162.12 19.385H162.119ZM182.648 19.385C185.122 19.385 187.168 20.0385 188.785 21.3455C190.42 22.6815 191.496 24.5816 191.802 26.6717H187.604C187.422 25.5494 186.821 24.538 185.922 23.8419C184.953 23.1344 183.775 22.7739 182.576 22.8183C181.862 22.8012 181.153 22.9362 180.495 23.2144C179.838 23.4926 179.247 23.9075 178.762 24.4318C177.745 25.5074 177.236 27.0862 177.236 29.1681C177.236 31.2501 177.745 32.8346 178.762 33.9217C179.244 34.4504 179.834 34.8694 180.492 35.1507C181.15 35.432 181.861 35.569 182.576 35.5524C183.778 35.5984 184.96 35.2321 185.926 34.5142C186.823 33.8096 187.423 32.7945 187.608 31.6689H191.806C191.498 33.763 190.423 35.6676 188.789 37.0124C187.171 38.3309 185.125 38.9901 182.652 38.9901C180.943 39.024 179.254 38.6177 177.747 37.8105C176.326 37.0249 175.164 35.8436 174.401 34.4099C173.557 32.7946 173.139 30.9916 173.183 29.1699C173.14 27.36 173.558 25.5689 174.397 23.9648C175.16 22.5311 176.322 21.3498 177.743 20.5642C179.25 19.7568 180.94 19.3507 182.649 19.385H182.648ZM203.28 19.385C204.857 19.3384 206.409 19.7868 207.719 20.6673C208.924 21.4966 209.835 22.6873 210.32 24.0679V19.6278H214.273V38.747H210.32V34.3055C209.835 35.6861 208.924 36.8768 207.719 37.7061C206.409 38.5866 204.857 39.0349 203.28 38.9884C201.715 39.0148 200.172 38.6064 198.824 37.8087C197.494 36.996 196.429 35.8147 195.756 34.4081C194.982 32.7723 194.602 30.9778 194.646 29.1686C194.604 27.3706 194.984 25.5879 195.756 23.9635C196.429 22.5569 197.494 21.3756 198.824 20.5629C200.173 19.7655 201.716 19.3577 203.282 19.385H203.28ZM204.494 22.855C203.712 22.8198 202.933 22.9516 202.206 23.2418C201.48 23.532 200.823 23.9738 200.281 24.5379C199.229 25.6598 198.703 27.2039 198.703 29.1703C198.703 31.1367 199.229 32.6807 200.282 33.8023C200.824 34.3667 201.481 34.8089 202.207 35.0994C202.934 35.3899 203.714 35.522 204.495 35.487C205.542 35.5036 206.573 35.2336 207.478 34.7061C208.362 34.1793 209.083 33.4164 209.558 32.5029C210.086 31.4734 210.348 30.3283 210.322 29.1717C210.345 28.0209 210.082 26.8824 209.558 25.8577C209.086 24.9368 208.366 24.1672 207.478 23.6368C206.574 23.1088 205.542 22.8384 204.495 22.8546L204.494 22.855ZM229.704 19.3178C231.924 19.3178 233.704 20.035 235.044 21.4693C236.385 22.9037 237.055 24.9509 237.056 27.6109V38.747H233.103V28.0252C233.103 26.3134 232.663 24.989 231.785 24.052C231.318 23.5753 230.755 23.2035 230.133 22.9612C229.511 22.7189 228.845 22.6118 228.178 22.6468C227.478 22.6159 226.778 22.7345 226.126 22.9948C225.475 23.255 224.886 23.651 224.399 24.1563C223.451 25.1626 222.977 26.6374 222.977 28.5805V38.747H219.024V19.6278H222.977V23.8282C223.434 22.4608 224.338 21.2873 225.543 20.497C226.783 19.6987 228.231 19.2875 229.706 19.3156L229.704 19.3178Z" fill="#CEC4E6"/>
<path d="M11.8234 25.6069C11.8234 25.3066 11.8827 25.0093 11.9979 24.732C12.1131 24.4547 12.2819 24.2029 12.4946 23.9911C12.7074 23.7793 12.9598 23.6116 13.2375 23.4976C13.5151 23.3837 13.8126 23.3258 14.1127 23.3272L17.9084 23.3396C18.5135 23.3396 19.0939 23.5801 19.5218 24.0083C19.9498 24.4365 20.1902 25.0173 20.1902 25.6228V39.984C20.6175 39.8571 21.1663 39.7218 21.7668 39.5803C22.1839 39.4823 22.5557 39.2461 22.8217 38.91C23.0878 38.574 23.2326 38.1578 23.2325 37.729V19.9146C23.2325 19.309 23.4728 18.7282 23.9008 18.3C24.3287 17.8717 24.9091 17.631 25.5143 17.6309H29.3175C29.9227 17.631 30.5031 17.8717 30.931 18.3C31.3589 18.7282 31.5993 19.309 31.5993 19.9146V36.4481C31.5993 36.4481 32.5515 36.0625 33.479 35.6708C33.8235 35.525 34.1176 35.2809 34.3244 34.969C34.5312 34.6571 34.6417 34.2911 34.642 33.9168V14.2064C34.642 13.6009 34.8824 13.0202 35.3102 12.5921C35.738 12.1638 36.3183 11.9233 36.9234 11.9231H40.7266C41.3318 11.9231 41.9121 12.1637 42.3401 12.5919C42.768 13.0201 43.0084 13.6008 43.0084 14.2064V30.4375C46.3056 28.0463 49.6471 25.1705 52.2987 21.7124C52.6836 21.2105 52.9381 20.6211 53.0398 19.9968C53.1414 19.3725 53.087 18.7327 52.8816 18.1345C51.654 14.6007 49.7032 11.3622 47.1532 8.62629C44.6031 5.89032 41.5104 3.71716 38.0729 2.24588C34.6354 0.774602 30.9288 0.0375928 27.1903 0.0820193C23.4519 0.126446 19.7638 0.951331 16.3623 2.50389C12.9606 4.05644 9.92039 6.30245 7.43606 9.09824C4.95174 11.894 3.07803 15.178 1.93486 18.74C0.791695 22.3019 0.404238 26.0634 0.797282 29.7839C1.19033 33.5043 2.35522 37.1017 4.21741 40.3457C4.54181 40.9053 5.01906 41.3607 5.59311 41.6583C6.16714 41.9559 6.81413 42.0834 7.45811 42.0259C8.17748 41.9627 9.07315 41.8729 10.1381 41.7478C10.6016 41.6951 11.0296 41.4736 11.3405 41.1255C11.6514 40.7775 11.8234 40.3271 11.8238 39.8602L11.8234 25.6069Z" fill="#CEC4E6"/>
<path d="M11.7422 48.641C15.751 51.5592 20.4885 53.3111 25.4305 53.7024C30.3726 54.0932 35.3264 53.109 39.744 50.8575C44.1616 48.6061 47.8704 45.1759 50.4606 40.9462C53.0505 36.7163 54.4207 31.852 54.4194 26.8913C54.4194 26.2723 54.3906 25.6599 54.3496 25.0511C44.5316 39.7032 26.4039 46.5532 11.743 48.6388" fill="#4F4468"/>
</g>
</g>
</g>
<defs>
<clipPath id="clip0_33_607">
<rect width="236.843" height="53.9429" fill="white" transform="translate(0.648438)"/>
</clipPath>
</defs>
</svg>
